<svg width="788.0" height="700.56" viewBox="0 0 788.0 700.56" xmlns="http://www.w3.org/2000/svg">
<style>/* font and background color specifications */
svg {
    font-family: SFMono-Regular,Consolas,Liberation Mono,Menlo,monospace;
    font-size: 14px;
    font-kerning: normal;
    text-rendering: optimizeLegibility;
    fill: #24292e;
}

/* default key styling */
rect {
    fill: #f6f8fa;
    stroke: #c9cccf;
    stroke-width: 1;
}

/* color accent for combo boxes */
rect.combo {
    fill: #cdf;
}

/* color accent for held keys */
rect.held, rect.combo.held {
    fill: #fdd;
}

/* color accent for ghost (optional) keys */
rect.ghost, rect.combo.ghost {
    fill: #ddd;
}

text {
    text-anchor: middle;
    dominant-baseline: middle;
}

/* styling for layer labels */
text.label {
    font-weight: bold;
    text-anchor: start;
    stroke: white;
    stroke-width: 2;
    paint-order: stroke;
}

/* styling for combo tap, and key hold/shifted label text */
text.combo, text.hold, text.shifted {
    font-size: 11px;
}

text.hold {
    text-anchor: middle;
    dominant-baseline: auto;
}

text.shifted {
    text-anchor: middle;
    dominant-baseline: hanging;
}

/* styling for hold/shifted label text in combo box */
text.combo.hold, text.combo.shifted {
    font-size: 8px;
}

/* styling for combo dendrons */
path {
    stroke-width: 1;
    stroke: gray;
    fill: none;
}
</style>
<g class="layer-Base">
<!-- <text x="30.0" y="28.0" class="label">Base:</text> -->
<rect rx="6.0" ry="6.0" x="32.0" y="79.0" width="52.0" height="52.0" class=""/>
<text x="58.0" y="105.0" class="tap">Q</text>
<rect rx="6.0" ry="6.0" x="88.0" y="65.0" width="52.0" height="52.0" class=""/>
<text x="114.0" y="91.0" class="tap">W</text>
<rect rx="6.0" ry="6.0" x="144.0" y="58.0" width="52.0" height="52.0" class=""/>
<text x="170.0" y="84.0" class="tap">E</text>
<rect rx="6.0" ry="6.0" x="200.0" y="65.0" width="52.0" height="52.0" class=""/>
<text x="226.0" y="91.0" class="tap">R</text>
<rect rx="6.0" ry="6.0" x="256.0" y="72.0" width="52.0" height="52.0" class=""/>
<text x="282.0" y="98.0" class="tap">T</text>
<rect rx="6.0" ry="6.0" x="480.0" y="72.0" width="52.0" height="52.0" class=""/>
<text x="506.0" y="98.0" class="tap">Y</text>
<rect rx="6.0" ry="6.0" x="536.0" y="65.0" width="52.0" height="52.0" class=""/>
<text x="562.0" y="91.0" class="tap">U</text>
<rect rx="6.0" ry="6.0" x="592.0" y="58.0" width="52.0" height="52.0" class=""/>
<text x="618.0" y="84.0" class="tap">I</text>
<rect rx="6.0" ry="6.0" x="648.0" y="65.0" width="52.0" height="52.0" class=""/>
<text x="674.0" y="91.0" class="tap">O</text>
<rect rx="6.0" ry="6.0" x="704.0" y="79.0" width="52.0" height="52.0" class=""/>
<text x="730.0" y="105.0" class="tap">P</text>
<rect rx="6.0" ry="6.0" x="32.0" y="135.0" width="52.0" height="52.0" class=""/>
<text x="58.0" y="161.0" class="tap">A</text>
<text x="58.0" y="185.0" class="hold">⌃</text>
<rect rx="6.0" ry="6.0" x="88.0" y="121.0" width="52.0" height="52.0" class=""/>
<text x="114.0" y="147.0" class="tap">S</text>
<text x="114.0" y="171.0" class="hold">⌥</text>
<rect rx="6.0" ry="6.0" x="144.0" y="114.0" width="52.0" height="52.0" class=""/>
<text x="170.0" y="140.0" class="tap">D</text>
<text x="170.0" y="164.0" class="hold">⌘</text>
<rect rx="6.0" ry="6.0" x="200.0" y="121.0" width="52.0" height="52.0" class=""/>
<text x="226.0" y="147.0" class="tap">F</text>
<text x="226.0" y="171.0" class="hold">⇧</text>
<rect rx="6.0" ry="6.0" x="256.0" y="128.0" width="52.0" height="52.0" class=""/>
<text x="282.0" y="154.0" class="tap">G</text>
<rect rx="6.0" ry="6.0" x="480.0" y="128.0" width="52.0" height="52.0" class=""/>
<text x="506.0" y="154.0" class="tap">H</text>
<rect rx="6.0" ry="6.0" x="536.0" y="121.0" width="52.0" height="52.0" class=""/>
<text x="562.0" y="147.0" class="tap">J</text>
<text x="562.0" y="171.0" class="hold">⇧</text>
<rect rx="6.0" ry="6.0" x="592.0" y="114.0" width="52.0" height="52.0" class=""/>
<text x="618.0" y="140.0" class="tap">K</text>
<text x="618.0" y="164.0" class="hold">⌘</text>
<rect rx="6.0" ry="6.0" x="648.0" y="121.0" width="52.0" height="52.0" class=""/>
<text x="674.0" y="147.0" class="tap">L</text>
<text x="674.0" y="171.0" class="hold">⌥</text>
<rect rx="6.0" ry="6.0" x="704.0" y="135.0" width="52.0" height="52.0" class=""/>
<text x="730.0" y="161.0" class="tap">&#x27;</text>
<text x="730.0" y="185.0" class="hold">⌃</text>
<rect rx="6.0" ry="6.0" x="32.0" y="191.0" width="52.0" height="52.0" class=""/>
<text x="58.0" y="217.0" class="tap">Z</text>
<rect rx="6.0" ry="6.0" x="88.0" y="177.0" width="52.0" height="52.0" class=""/>
<text x="114.0" y="203.0" class="tap">X</text>
<rect rx="6.0" ry="6.0" x="144.0" y="170.0" width="52.0" height="52.0" class=""/>
<text x="170.0" y="196.0" class="tap">C</text>
<rect rx="6.0" ry="6.0" x="200.0" y="177.0" width="52.0" height="52.0" class=""/>
<text x="226.0" y="203.0" class="tap">V</text>
<rect rx="6.0" ry="6.0" x="256.0" y="184.0" width="52.0" height="52.0" class=""/>
<text x="282.0" y="210.0" class="tap">B</text>
<rect rx="6.0" ry="6.0" x="480.0" y="184.0" width="52.0" height="52.0" class=""/>
<text x="506.0" y="210.0" class="tap">N</text>
<rect rx="6.0" ry="6.0" x="536.0" y="177.0" width="52.0" height="52.0" class=""/>
<text x="562.0" y="203.0" class="tap">M</text>
<rect rx="6.0" ry="6.0" x="592.0" y="170.0" width="52.0" height="52.0" class=""/>
<text x="618.0" y="196.0" class="tap">,</text>
<rect rx="6.0" ry="6.0" x="648.0" y="177.0" width="52.0" height="52.0" class=""/>
<text x="674.0" y="203.0" class="tap">.</text>
<rect rx="6.0" ry="6.0" x="704.0" y="191.0" width="52.0" height="52.0" class=""/>
<text x="730.0" y="217.0" class="tap">/</text>
<rect rx="6.0" ry="6.0" x="172.0" y="234.84799999999996" width="52.0" height="52.0" class=""/>
<text x="198.0" y="260.84799999999996" class="tap">ESC</text>
<text x="198.0" y="284.84799999999996" class="hold">Media</text>
<g transform="rotate(15.0, 259.59999999999997, 269.08000000000004)">
<rect rx="6.0" ry="6.0" x="233.59999999999997" y="243.08000000000004" width="52.0" height="52.0" class=""/>
<text x="259.59999999999997" y="269.08000000000004" class="tap">TAB</text>
<text x="259.59999999999997" y="293.08000000000004" class="hold">Nav</text>
</g>
<g transform="rotate(30.0, 325.12, 280.28)">
<rect rx="6.0" ry="6.0" x="299.12" y="240.27999999999997" width="52.0" height="80.0" class=""/>
<text x="325.12" y="280.28" class="tap">RET</text>
<text x="325.12" y="318.28" class="hold">Num</text>
</g>
<g transform="rotate(-30.0, 462.88, 280.28)">
<rect rx="6.0" ry="6.0" x="436.88" y="240.27999999999997" width="52.0" height="80.0" class=""/>
<text x="462.88" y="280.28" class="tap">SPC</text>
<text x="462.88" y="318.28" class="hold">Sym</text>
</g>
<g transform="rotate(-15.0, 528.4000000000001, 269.08000000000004)">
<rect rx="6.0" ry="6.0" x="502.4000000000001" y="243.08000000000004" width="52.0" height="52.0" class=""/>
<text x="528.4000000000001" y="269.08000000000004" class="tap">BKSP</text>
</g>
<rect rx="6.0" ry="6.0" x="564.0" y="234.84799999999996" width="52.0" height="52.0" class=""/>
<text x="590.0" y="260.84799999999996" class="tap">DEL</text>
<text x="590.0" y="284.84799999999996" class="hold">Func</text>
</g>
<g class="layer-Combos">
<!-- <text x="30.0" y="350.28" class="label">Combos:</text> -->
<rect rx="6.0" ry="6.0" x="32.0" y="401.28" width="52.0" height="52.0" class=""/>
<rect rx="6.0" ry="6.0" x="88.0" y="387.28" width="52.0" height="52.0" class=""/>
<rect rx="6.0" ry="6.0" x="144.0" y="380.28" width="52.0" height="52.0" class=""/>
<rect rx="6.0" ry="6.0" x="200.0" y="387.28" width="52.0" height="52.0" class=""/>
<rect rx="6.0" ry="6.0" x="256.0" y="394.28" width="52.0" height="52.0" class=""/>
<rect rx="6.0" ry="6.0" x="480.0" y="394.28" width="52.0" height="52.0" class=""/>
<rect rx="6.0" ry="6.0" x="536.0" y="387.28" width="52.0" height="52.0" class=""/>
<rect rx="6.0" ry="6.0" x="592.0" y="380.28" width="52.0" height="52.0" class=""/>
<rect rx="6.0" ry="6.0" x="648.0" y="387.28" width="52.0" height="52.0" class=""/>
<rect rx="6.0" ry="6.0" x="704.0" y="401.28" width="52.0" height="52.0" class=""/>
<rect rx="6.0" ry="6.0" x="32.0" y="457.28" width="52.0" height="52.0" class=""/>
<rect rx="6.0" ry="6.0" x="88.0" y="443.28" width="52.0" height="52.0" class=""/>
<rect rx="6.0" ry="6.0" x="144.0" y="436.28" width="52.0" height="52.0" class=""/>
<rect rx="6.0" ry="6.0" x="200.0" y="443.28" width="52.0" height="52.0" class=""/>
<rect rx="6.0" ry="6.0" x="256.0" y="450.28" width="52.0" height="52.0" class=""/>
<rect rx="6.0" ry="6.0" x="480.0" y="450.28" width="52.0" height="52.0" class=""/>
<rect rx="6.0" ry="6.0" x="536.0" y="443.28" width="52.0" height="52.0" class=""/>
<rect rx="6.0" ry="6.0" x="592.0" y="436.28" width="52.0" height="52.0" class=""/>
<rect rx="6.0" ry="6.0" x="648.0" y="443.28" width="52.0" height="52.0" class=""/>
<rect rx="6.0" ry="6.0" x="704.0" y="457.28" width="52.0" height="52.0" class=""/>
<rect rx="6.0" ry="6.0" x="32.0" y="513.28" width="52.0" height="52.0" class=""/>
<rect rx="6.0" ry="6.0" x="88.0" y="499.28" width="52.0" height="52.0" class=""/>
<rect rx="6.0" ry="6.0" x="144.0" y="492.28" width="52.0" height="52.0" class=""/>
<rect rx="6.0" ry="6.0" x="200.0" y="499.28" width="52.0" height="52.0" class=""/>
<rect rx="6.0" ry="6.0" x="256.0" y="506.28" width="52.0" height="52.0" class=""/>
<rect rx="6.0" ry="6.0" x="480.0" y="506.28" width="52.0" height="52.0" class=""/>
<rect rx="6.0" ry="6.0" x="536.0" y="499.28" width="52.0" height="52.0" class=""/>
<rect rx="6.0" ry="6.0" x="592.0" y="492.28" width="52.0" height="52.0" class=""/>
<rect rx="6.0" ry="6.0" x="648.0" y="499.28" width="52.0" height="52.0" class=""/>
<rect rx="6.0" ry="6.0" x="704.0" y="513.28" width="52.0" height="52.0" class=""/>
<rect rx="6.0" ry="6.0" x="172.0" y="557.1279999999999" width="52.0" height="52.0" class=""/>
<g transform="rotate(15.0, 259.59999999999997, 591.36)">
<rect rx="6.0" ry="6.0" x="233.59999999999997" y="565.36" width="52.0" height="52.0" class=""/>
</g>
<g transform="rotate(30.0, 325.12, 602.56)">
<rect rx="6.0" ry="6.0" x="299.12" y="562.56" width="52.0" height="80.0" class=""/>
</g>
<g transform="rotate(-30.0, 462.88, 602.56)">
<rect rx="6.0" ry="6.0" x="436.88" y="562.56" width="52.0" height="80.0" class=""/>
</g>
<g transform="rotate(-15.0, 528.4000000000001, 591.36)">
<rect rx="6.0" ry="6.0" x="502.4000000000001" y="565.36" width="52.0" height="52.0" class=""/>
</g>
<rect rx="6.0" ry="6.0" x="564.0" y="557.1279999999999" width="52.0" height="52.0" class=""/>
<path d="M394.0,469.28 l-149.33333333333331,0.0"/>
<path d="M394.0,469.28 l149.33333333333331,0.0"/>
<rect rx="6.0" ry="6.0" x="380.0" y="456.28" width="28.0" height="26.0" class="combo"/>
<text x="394.0" y="469.28" class="combo">
<tspan x="394.0" dy="-0.6em">Caps</tspan><tspan x="394.0" dy="1.2em">Word</tspan></text>
<rect rx="6.0" ry="6.0" x="128.0" y="508.78" width="28.0" height="26.0" class="combo"/>
<text x="142.0" y="521.78" class="combo">Cut</text>
<rect rx="6.0" ry="6.0" x="184.0" y="508.78" width="28.0" height="26.0" class="combo"/>
<text x="198.0" y="521.78" class="combo">Cpy</text>
<rect rx="6.0" ry="6.0" x="240.0" y="515.78" width="28.0" height="26.0" class="combo"/>
<text x="254.0" y="528.78" class="combo">Pst</text>
<rect rx="6.0" ry="6.0" x="128.0" y="452.78" width="28.0" height="26.0" class="combo"/>
<text x="142.0" y="465.78" class="combo">Save</text>
<rect rx="6.0" ry="6.0" x="72.0" y="407.28" width="28.0" height="26.0" class="combo"/>
<text x="86.0" y="420.28" class="combo">
<tspan x="86.0" dy="-0.6em">Lock</tspan><tspan x="86.0" dy="1.2em">Screen</tspan></text>
<rect rx="6.0" ry="6.0" x="576.0" y="396.78" width="28.0" height="26.0" class="combo"/>
<text x="590.0" y="409.78" class="combo">{</text>
<rect rx="6.0" ry="6.0" x="632.0" y="396.78" width="28.0" height="26.0" class="combo"/>
<text x="646.0" y="409.78" class="combo">}</text>
<rect rx="6.0" ry="6.0" x="576.0" y="452.78" width="28.0" height="26.0" class="combo"/>
<text x="590.0" y="465.78" class="combo">[</text>
<rect rx="6.0" ry="6.0" x="632.0" y="452.78" width="28.0" height="26.0" class="combo"/>
<text x="646.0" y="465.78" class="combo">]</text>
<rect rx="6.0" ry="6.0" x="576.0" y="508.78" width="28.0" height="26.0" class="combo"/>
<text x="590.0" y="521.78" class="combo">(</text>
<rect rx="6.0" ry="6.0" x="632.0" y="508.78" width="28.0" height="26.0" class="combo"/>
<text x="646.0" y="521.78" class="combo">)</text>
<rect rx="6.0" ry="6.0" x="632.0" y="508.78" width="28.0" height="26.0" class="combo"/>
<text x="646.0" y="521.78" class="combo">)</text>
<rect rx="6.0" ry="6.0" x="548.0" y="428.28" width="28.0" height="26.0" class="combo"/>
<text x="562.0" y="441.28" class="combo">|</text>
<rect rx="6.0" ry="6.0" x="520.0" y="459.78" width="28.0" height="26.0" class="combo"/>
<text x="534.0" y="472.78" class="combo">`</text>
<rect rx="6.0" ry="6.0" x="604.0" y="421.28" width="28.0" height="26.0" class="combo"/>
<text x="618.0" y="434.28" class="combo">^</text>
<rect rx="6.0" ry="6.0" x="688.0" y="463.28" width="28.0" height="26.0" class="combo"/>
<text x="702.0" y="476.28" class="combo">;</text>
<rect rx="6.0" ry="6.0" x="660.0" y="428.28" width="28.0" height="26.0" class="combo"/>
<text x="674.0" y="441.28" class="combo">$</text>
<rect rx="6.0" ry="6.0" x="716.0" y="498.28" width="28.0" height="26.0" class="combo"/>
<text x="730.0" y="511.28" class="combo">\</text>
</g>
</svg>
