<svg width="788.0" height="378.28" viewBox="0 0 788.0 378.28" xmlns="http://www.w3.org/2000/svg">
<style>/* font and background color specifications */
svg {
    font-family: SFMono-Regular,Consolas,Liberation Mono,Menlo,monospace;
    font-size: 14px;
    font-kerning: normal;
    text-rendering: optimizeLegibility;
    fill: #24292e;
}

/* default key styling */
rect {
    fill: #f6f8fa;
    stroke: #c9cccf;
    stroke-width: 1;
}

/* color accent for combo boxes */
rect.combo {
    fill: #cdf;
}

/* color accent for held keys */
rect.held, rect.combo.held {
    fill: #fdd;
}

/* color accent for ghost (optional) keys */
rect.ghost, rect.combo.ghost {
    fill: #ddd;
}

text {
    text-anchor: middle;
    dominant-baseline: middle;
}

/* styling for layer labels */
text.label {
    font-weight: bold;
    text-anchor: start;
    stroke: white;
    stroke-width: 2;
    paint-order: stroke;
}

/* styling for combo tap, and key hold/shifted label text */
text.combo, text.hold, text.shifted {
    font-size: 11px;
}

text.hold {
    text-anchor: middle;
    dominant-baseline: auto;
}

text.shifted {
    text-anchor: middle;
    dominant-baseline: hanging;
}

/* styling for hold/shifted label text in combo box */
text.combo.hold, text.combo.shifted {
    font-size: 8px;
}

/* styling for combo dendrons */
path {
    stroke-width: 1;
    stroke: gray;
    fill: none;
}
</style>
<g class="layer-Func">
<!-- <text x="30.0" y="28.0" class="label">Func:</text> -->
<rect rx="6.0" ry="6.0" x="32.0" y="79.0" width="52.0" height="52.0" class=""/>
<rect rx="6.0" ry="6.0" x="88.0" y="65.0" width="52.0" height="52.0" class=""/>
<text x="114.0" y="91.0" class="tap">F7</text>
<rect rx="6.0" ry="6.0" x="144.0" y="58.0" width="52.0" height="52.0" class=""/>
<text x="170.0" y="84.0" class="tap">F8</text>
<rect rx="6.0" ry="6.0" x="200.0" y="65.0" width="52.0" height="52.0" class=""/>
<text x="226.0" y="91.0" class="tap">F9</text>
<rect rx="6.0" ry="6.0" x="256.0" y="72.0" width="52.0" height="52.0" class=""/>
<text x="282.0" y="98.0" class="tap">F12</text>
<rect rx="6.0" ry="6.0" x="480.0" y="72.0" width="52.0" height="52.0" class=""/>
<rect rx="6.0" ry="6.0" x="536.0" y="65.0" width="52.0" height="52.0" class=""/>
<rect rx="6.0" ry="6.0" x="592.0" y="58.0" width="52.0" height="52.0" class=""/>
<rect rx="6.0" ry="6.0" x="648.0" y="65.0" width="52.0" height="52.0" class=""/>
<rect rx="6.0" ry="6.0" x="704.0" y="79.0" width="52.0" height="52.0" class=""/>
<rect rx="6.0" ry="6.0" x="32.0" y="135.0" width="52.0" height="52.0" class=""/>
<rect rx="6.0" ry="6.0" x="88.0" y="121.0" width="52.0" height="52.0" class=""/>
<text x="114.0" y="147.0" class="tap">F4</text>
<rect rx="6.0" ry="6.0" x="144.0" y="114.0" width="52.0" height="52.0" class=""/>
<text x="170.0" y="140.0" class="tap">F5</text>
<rect rx="6.0" ry="6.0" x="200.0" y="121.0" width="52.0" height="52.0" class=""/>
<text x="226.0" y="147.0" class="tap">F6</text>
<rect rx="6.0" ry="6.0" x="256.0" y="128.0" width="52.0" height="52.0" class=""/>
<text x="282.0" y="154.0" class="tap">F11</text>
<rect rx="6.0" ry="6.0" x="480.0" y="128.0" width="52.0" height="52.0" class=""/>
<rect rx="6.0" ry="6.0" x="536.0" y="121.0" width="52.0" height="52.0" class=""/>
<text x="562.0" y="147.0" class="tap">⇧</text>
<rect rx="6.0" ry="6.0" x="592.0" y="114.0" width="52.0" height="52.0" class=""/>
<text x="618.0" y="140.0" class="tap">⌘</text>
<rect rx="6.0" ry="6.0" x="648.0" y="121.0" width="52.0" height="52.0" class=""/>
<text x="674.0" y="147.0" class="tap">⌥</text>
<rect rx="6.0" ry="6.0" x="704.0" y="135.0" width="52.0" height="52.0" class=""/>
<text x="730.0" y="161.0" class="tap">⌃</text>
<rect rx="6.0" ry="6.0" x="32.0" y="191.0" width="52.0" height="52.0" class=""/>
<rect rx="6.0" ry="6.0" x="88.0" y="177.0" width="52.0" height="52.0" class=""/>
<text x="114.0" y="203.0" class="tap">F1</text>
<rect rx="6.0" ry="6.0" x="144.0" y="170.0" width="52.0" height="52.0" class=""/>
<text x="170.0" y="196.0" class="tap">F2</text>
<rect rx="6.0" ry="6.0" x="200.0" y="177.0" width="52.0" height="52.0" class=""/>
<text x="226.0" y="203.0" class="tap">F3</text>
<rect rx="6.0" ry="6.0" x="256.0" y="184.0" width="52.0" height="52.0" class=""/>
<text x="282.0" y="210.0" class="tap">F10</text>
<rect rx="6.0" ry="6.0" x="480.0" y="184.0" width="52.0" height="52.0" class=""/>
<rect rx="6.0" ry="6.0" x="536.0" y="177.0" width="52.0" height="52.0" class=""/>
<rect rx="6.0" ry="6.0" x="592.0" y="170.0" width="52.0" height="52.0" class=""/>
<rect rx="6.0" ry="6.0" x="648.0" y="177.0" width="52.0" height="52.0" class=""/>
<rect rx="6.0" ry="6.0" x="704.0" y="191.0" width="52.0" height="52.0" class=""/>
<rect rx="6.0" ry="6.0" x="172.0" y="234.84799999999996" width="52.0" height="52.0" class=""/>
<g transform="rotate(15.0, 259.59999999999997, 269.08000000000004)">
<rect rx="6.0" ry="6.0" x="233.59999999999997" y="243.08000000000004" width="52.0" height="52.0" class=""/>
</g>
<g transform="rotate(30.0, 325.12, 280.28)">
<rect rx="6.0" ry="6.0" x="299.12" y="240.27999999999997" width="52.0" height="80.0" class=""/>
</g>
<g transform="rotate(-30.0, 462.88, 280.28)">
<rect rx="6.0" ry="6.0" x="436.88" y="240.27999999999997" width="52.0" height="80.0" class=""/>
</g>
<g transform="rotate(-15.0, 528.4000000000001, 269.08000000000004)">
<rect rx="6.0" ry="6.0" x="502.4000000000001" y="243.08000000000004" width="52.0" height="52.0" class=""/>
</g>
<rect rx="6.0" ry="6.0" x="564.0" y="234.84799999999996" width="52.0" height="52.0" class=""/>
</g>
</svg>
